<?xml version="1.0" encoding="UTF-8" standalone="no"?>
<!-- Created with Inkscape (http://www.inkscape.org/) -->

<svg
   width="2200mm"
   height="2200mm"
   viewBox="0 0 2200 2200"
   version="1.1"
   id="svg1"
   xml:space="preserve"
   inkscape:version="1.3.2 (091e20e, 2023-11-25, custom)"
   sodipodi:docname="logo2.svg"
   inkscape:export-filename="logo2.png"
   inkscape:export-xdpi="96"
   inkscape:export-ydpi="96"
   xmlns:inkscape="http://www.inkscape.org/namespaces/inkscape"
   xmlns:sodipodi="http://sodipodi.sourceforge.net/DTD/sodipodi-0.dtd"
   xmlns="http://www.w3.org/2000/svg"
   xmlns:svg="http://www.w3.org/2000/svg"><sodipodi:namedview
     id="namedview1"
     pagecolor="#ffffff"
     bordercolor="#000000"
     borderopacity="0.25"
     inkscape:showpageshadow="2"
     inkscape:pageopacity="0.0"
     inkscape:pagecheckerboard="0"
     inkscape:deskcolor="#d1d1d1"
     inkscape:document-units="mm"
     inkscape:zoom="0.06779602"
     inkscape:cx="3805.5331"
     inkscape:cy="3547.4059"
     inkscape:window-width="1920"
     inkscape:window-height="1057"
     inkscape:window-x="1358"
     inkscape:window-y="-8"
     inkscape:window-maximized="1"
     inkscape:current-layer="layer1" /><defs
     id="defs1" /><g
     inkscape:label="Camada 1"
     inkscape:groupmode="layer"
     id="layer1"><g
       id="g2"
       transform="translate(19.372601,5.0655941e-5)"><text
         xml:space="preserve"
         style="font-size:1411.11px;line-height:76.62%;font-family:'M PLUS 1 Code';-inkscape-font-specification:'M PLUS 1 Code';letter-spacing:0.264583px;word-spacing:0px;fill:#000000;fill-opacity:1;stroke:#000000;stroke-width:0.264999;stroke-opacity:0"
         x="58.539536"
         y="1081.5144"
         id="text1"><tspan
           sodipodi:role="line"
           id="tspan1"
           style="font-size:1411.11px;line-height:76.62%;fill:#000000;fill-opacity:1;stroke-width:0.265"
           x="58.539536"
           y="1081.5144">OK</tspan><tspan
           sodipodi:role="line"
           style="font-size:1411.11px;line-height:76.62%;fill:#000000;fill-opacity:1;stroke-width:0.265"
           x="58.539536"
           y="2162.7068"
           id="tspan2">RA</tspan></text><g
         id="g3"
         transform="matrix(14.689261,-7.9055801,5.4275555,13.413951,861.1427,518.01863)"><path
           class="st0"
           d="M 71.53,27.3 C 61.82,54.7 53.64,75.77 43.8,91.29 c -9.92,15.65 -21.5,25.66 -37.93,30.78 -0.28,0.09 -0.38,0.12 -0.5,0.16 -1.27,0.42 -2.97,0.99 -4.28,0.39 -0.8,-0.36 -1.16,-0.97 -1.08,-1.83 0.05,-0.56 0.35,-1.21 0.88,-1.94 0.03,-0.04 0.06,-0.08 0.09,-0.11 17.36,-19.91 27.77,-62.14 34.77,-90.52 0.93,-3.76 1.79,-7.27 2.68,-10.75 0.36,-1.42 5.64,-3.76 6.95,-4.19 2.72,-0.9 5.91,-1.48 9.04,-1.59 L 58.04,0.58 C 58.17,0.18 58.57,-0.06 58.98,0 v 0 c 1.02,0.15 2.36,0.64 3.58,1.39 1.06,0.64 2.05,1.48 2.72,2.45 1.02,1.48 0.91,1.87 0.54,3.22 -0.02,0.04 -0.02,0.05 -0.1,0.35 l -1.89,7 c 0.38,0.44 0.75,0.85 1.12,1.26 1.69,1.88 7.46,9.15 6.58,11.63 z"
           id="path1" /><path
           class="st1"
           d="m 48.55,19.2 c -14.17,41.99 -26.58,81.59 -41.77,98.67 0.76,-0.19 1.51,-0.5 2.27,-0.95 15.17,-9 36.71,-77.51 43,-97.11 1.28,0.27 2.53,0.58 3.77,0.94 2.21,0.65 4.36,1.44 6.45,2.39 -10.94,32.34 -21.94,62.82 -33.63,75.97 12.11,-2.99 31.65,-60 36.38,-74.59 1.51,0.81 2.97,1.72 4.4,2.71 C 59.85,54.2 51.77,74.96 42.1,90.21 32.45,105.45 21.2,115.19 5.27,120.15 5.23,120.16 5,120.24 4.74,120.32 3.86,120.61 2.7,121 2.05,120.83 2.12,120.64 2.27,120.38 2.51,120.05 20.18,99.76 30.66,57.26 37.7,28.71 38.61,25 39.47,21.52 40.22,18.59 c 2.86,0.03 5.63,0.23 8.33,0.61 z"
           id="path2" /><path
           class="st0"
           d="M 62.07,14.41 64.08,6.98 C 64.09,6.93 64.13,6.81 64.18,6.63 64.39,5.88 64.45,5.66 63.88,4.84 63.35,4.07 62.54,3.4 61.68,2.88 60.92,2.42 60.13,2.08 59.44,1.88 l -3.57,10.95 v 0 c -0.11,0.34 -0.43,0.59 -0.8,0.59 -3.13,0.04 -6.39,0.61 -9.14,1.52 -1.68,0.55 -3.15,1.23 -4.28,1.98 5.13,0.13 10.02,0.85 14.64,2.2 4.58,1.34 8.89,3.29 12.92,5.92 -1.11,-3.28 -3.31,-5.75 -5.52,-8.21 -0.49,-0.54 -0.97,-1.08 -1.4,-1.59 -0.21,-0.22 -0.3,-0.52 -0.22,-0.83 z"
           id="path3" /></g></g></g><style
     type="text/css"
     id="style1">.st0{fill-rule:evenodd;clip-rule:evenodd;fill:#39591B;} .st1{fill-rule:evenodd;clip-rule:evenodd;fill:#689B2D;}</style></svg>
